<?xml version="1.0" encoding="UTF-8"?>
<svg version="1.1" xmlns="http://www.w3.org/2000/svg" width="603" height="207">
<path d="M0,0 L8,0 L8,1 L10,1 L10,2 L11,2 L11,3 L12,3 L12,4 L13,4 L13,6 L14,6 L14,14 L13,14 L13,16 L12,16 L12,17 L11,17 L11,18 L10,18 L10,19 L8,19 L8,20 L0,20 L0,19 L-2,19 L-2,18 L-3,18 L-3,17 L-4,17 L-4,16 L-5,16 L-5,14 L-6,14 L-6,6 L-5,6 L-5,4 L-4,4 L-4,3 L-3,3 L-3,2 L-2,2 L-2,1 L0,1 Z " fill="#000000" transform="translate(363,25)"/>
<path d="M0,0 L123,0 L123,1 L125,1 L125,2 L127,2 L127,3 L128,3 L128,4 L129,4 L129,6 L130,6 L130,21 L129,21 L129,22 L128,22 L128,21 L119,21 L119,22 L118,22 L118,21 L117,21 L117,22 L115,22 L115,16 L8,16 L8,85 L9,85 L9,86 L99,86 L99,107 L77,107 L77,110 L78,110 L78,112 L79,112 L79,114 L80,114 L80,115 L81,115 L81,116 L82,116 L82,117 L84,117 L84,118 L86,118 L86,119 L90,119 L90,120 L93,120 L93,121 L94,121 L94,123 L95,123 L95,124 L94,124 L94,126 L93,126 L93,127 L30,127 L30,126 L29,126 L29,124 L28,124 L28,123 L29,123 L29,121 L30,121 L30,120 L32,120 L32,119 L37,119 L37,118 L39,118 L39,117 L41,117 L41,116 L42,116 L42,115 L43,115 L43,114 L44,114 L44,112 L45,112 L45,110 L46,110 L46,107 L-1,107 L-1,106 L-3,106 L-3,105 L-5,105 L-5,103 L-6,103 L-6,102 L-7,102 L-7,6 L-6,6 L-6,4 L-5,4 L-5,3 L-4,3 L-4,2 L-2,2 L-2,1 L0,1 Z M60,92 L60,93 L58,93 L58,94 L57,94 L57,100 L58,100 L58,101 L59,101 L59,102 L63,102 L63,101 L65,101 L65,100 L66,100 L66,95 L65,95 L65,93 L63,93 L63,92 Z " fill="#000000" transform="translate(42,36)"/>
<path d="M0,0 L19,0 L19,1 L22,1 L22,2 L26,2 L26,3 L30,3 L30,4 L31,4 L31,3 L33,3 L33,2 L34,2 L34,1 L40,1 L40,12 L41,12 L41,25 L37,25 L37,24 L35,24 L35,23 L34,23 L34,22 L33,22 L33,20 L32,20 L32,18 L31,18 L31,17 L30,17 L30,15 L29,15 L29,14 L28,14 L28,13 L27,13 L27,12 L26,12 L26,11 L25,11 L25,10 L23,10 L23,9 L22,9 L22,8 L20,8 L20,7 L16,7 L16,6 L5,6 L5,7 L3,7 L3,8 L1,8 L1,9 L-1,9 L-1,10 L-2,10 L-2,11 L-3,11 L-3,13 L-4,13 L-4,14 L-5,14 L-5,17 L-6,17 L-6,27 L-5,27 L-5,30 L-4,30 L-4,32 L-3,32 L-3,33 L-2,33 L-2,34 L-1,34 L-1,35 L0,35 L0,36 L1,36 L1,37 L2,37 L2,38 L4,38 L4,39 L5,39 L5,40 L7,40 L7,41 L9,41 L9,42 L11,42 L11,43 L13,43 L13,44 L15,44 L15,45 L17,45 L17,46 L19,46 L19,47 L21,47 L21,48 L23,48 L23,49 L25,49 L25,50 L27,50 L27,51 L29,51 L29,52 L31,52 L31,53 L32,53 L32,54 L34,54 L34,55 L35,55 L35,56 L37,56 L37,57 L38,57 L38,58 L39,58 L39,59 L40,59 L40,60 L41,60 L41,61 L42,61 L42,62 L43,62 L43,63 L44,63 L44,64 L45,64 L45,66 L46,66 L46,68 L47,68 L47,70 L48,70 L48,72 L49,72 L49,78 L50,78 L50,84 L49,84 L49,90 L48,90 L48,92 L47,92 L47,95 L46,95 L46,96 L45,96 L45,98 L44,98 L44,99 L43,99 L43,100 L42,100 L42,101 L41,101 L41,102 L40,102 L40,103 L39,103 L39,104 L38,104 L38,105 L36,105 L36,106 L35,106 L35,107 L33,107 L33,108 L31,108 L31,109 L29,109 L29,110 L26,110 L26,111 L21,111 L21,112 L8,112 L8,111 L3,111 L3,110 L0,110 L0,109 L-3,109 L-3,108 L-6,108 L-6,107 L-8,107 L-8,106 L-15,106 L-15,107 L-17,107 L-17,109 L-18,109 L-18,110 L-23,110 L-23,109 L-24,109 L-24,97 L-25,97 L-25,85 L-18,85 L-18,86 L-17,86 L-17,87 L-16,87 L-16,89 L-15,89 L-15,91 L-14,91 L-14,93 L-13,93 L-13,94 L-12,94 L-12,96 L-11,96 L-11,97 L-10,97 L-10,98 L-9,98 L-9,99 L-7,99 L-7,100 L-6,100 L-6,101 L-4,101 L-4,102 L-2,102 L-2,103 L0,103 L0,104 L3,104 L3,105 L11,105 L11,106 L12,106 L12,105 L18,105 L18,104 L21,104 L21,103 L23,103 L23,102 L24,102 L24,101 L25,101 L25,100 L26,100 L26,99 L27,99 L27,98 L28,98 L28,96 L29,96 L29,93 L30,93 L30,83 L29,83 L29,80 L28,80 L28,78 L27,78 L27,77 L26,77 L26,75 L25,75 L25,74 L24,74 L24,73 L22,73 L22,72 L21,72 L21,71 L20,71 L20,70 L18,70 L18,69 L17,69 L17,68 L15,68 L15,67 L13,67 L13,66 L11,66 L11,65 L9,65 L9,64 L7,64 L7,63 L5,63 L5,62 L3,62 L3,61 L1,61 L1,60 L-1,60 L-1,59 L-3,59 L-3,58 L-4,58 L-4,57 L-6,57 L-6,56 L-8,56 L-8,55 L-9,55 L-9,54 L-11,54 L-11,53 L-12,53 L-12,52 L-13,52 L-13,51 L-14,51 L-14,50 L-15,50 L-15,49 L-16,49 L-16,48 L-17,48 L-17,47 L-18,47 L-18,46 L-19,46 L-19,44 L-20,44 L-20,42 L-21,42 L-21,41 L-22,41 L-22,38 L-23,38 L-23,34 L-24,34 L-24,23 L-23,23 L-23,19 L-22,19 L-22,16 L-21,16 L-21,15 L-20,15 L-20,13 L-19,13 L-19,12 L-18,12 L-18,10 L-17,10 L-17,9 L-16,9 L-16,8 L-15,8 L-15,7 L-13,7 L-13,6 L-12,6 L-12,5 L-11,5 L-11,4 L-9,4 L-9,3 L-7,3 L-7,2 L-4,2 L-4,1 L0,1 Z " fill="#000000" transform="translate(516,36)"/>
<path d="M0,0 L8,0 L8,1 L75,1 L75,0 L82,0 L82,5 L81,5 L81,9 L80,9 L80,12 L79,12 L79,16 L78,16 L78,20 L77,20 L77,23 L71,23 L71,13 L70,13 L70,10 L69,10 L69,9 L68,9 L68,8 L63,8 L63,7 L50,7 L50,8 L49,8 L49,100 L50,100 L50,101 L52,101 L52,102 L55,102 L55,103 L61,103 L61,109 L47,109 L47,108 L30,108 L30,109 L16,109 L16,103 L22,103 L22,102 L25,102 L25,101 L27,101 L27,100 L28,100 L28,8 L27,8 L27,7 L15,7 L15,8 L10,8 L10,9 L8,9 L8,10 L7,10 L7,11 L6,11 L6,13 L5,13 L5,14 L4,14 L4,16 L3,16 L3,18 L2,18 L2,20 L1,20 L1,22 L0,22 L0,23 L-6,23 L-6,21 L-5,21 L-5,17 L-4,17 L-4,13 L-3,13 L-3,9 L-2,9 L-2,5 L-1,5 L-1,2 L0,2 Z " fill="#000000" transform="translate(401,37)"/>
<path d="M0,0 L7,0 L7,1 L38,1 L38,0 L45,0 L45,6 L40,6 L40,7 L36,7 L36,8 L35,8 L35,9 L34,9 L34,10 L33,10 L33,56 L35,56 L35,55 L36,55 L36,53 L37,53 L37,52 L38,52 L38,51 L39,51 L39,50 L40,50 L40,49 L41,49 L41,48 L42,48 L42,47 L43,47 L43,45 L44,45 L44,44 L45,44 L45,43 L46,43 L46,42 L47,42 L47,41 L48,41 L48,40 L49,40 L49,39 L50,39 L50,38 L51,38 L51,36 L52,36 L52,35 L53,35 L53,34 L54,34 L54,33 L55,33 L55,32 L56,32 L56,31 L57,31 L57,30 L58,30 L58,29 L59,29 L59,27 L60,27 L60,26 L61,26 L61,25 L62,25 L62,24 L63,24 L63,23 L64,23 L64,22 L65,22 L65,21 L66,21 L66,19 L67,19 L67,18 L68,18 L68,17 L69,17 L69,16 L70,16 L70,15 L71,15 L71,14 L72,14 L72,13 L73,13 L73,11 L74,11 L74,10 L73,10 L73,8 L71,8 L71,7 L67,7 L67,6 L61,6 L61,0 L67,0 L67,1 L93,1 L93,0 L98,0 L98,6 L92,6 L92,7 L89,7 L89,8 L86,8 L86,9 L85,9 L85,10 L83,10 L83,11 L82,11 L82,12 L81,12 L81,13 L80,13 L80,15 L79,15 L79,16 L78,16 L78,17 L77,17 L77,18 L76,18 L76,19 L75,19 L75,20 L74,20 L74,21 L73,21 L73,23 L72,23 L72,24 L71,24 L71,25 L70,25 L70,26 L69,26 L69,27 L68,27 L68,28 L67,28 L67,29 L66,29 L66,31 L65,31 L65,32 L64,32 L64,33 L63,33 L63,34 L62,34 L62,35 L61,35 L61,36 L60,36 L60,37 L59,37 L59,38 L58,38 L58,40 L57,40 L57,41 L56,41 L56,42 L55,42 L55,43 L54,43 L54,44 L53,44 L53,45 L52,45 L52,46 L51,46 L51,48 L52,48 L52,50 L53,50 L53,51 L54,51 L54,52 L55,52 L55,54 L56,54 L56,55 L57,55 L57,56 L58,56 L58,58 L59,58 L59,59 L60,59 L60,60 L61,60 L61,62 L62,62 L62,63 L63,63 L63,64 L64,64 L64,66 L65,66 L65,67 L66,67 L66,68 L67,68 L67,70 L68,70 L68,71 L69,71 L69,72 L70,72 L70,74 L71,74 L71,75 L72,75 L72,76 L73,76 L73,78 L74,78 L74,79 L75,79 L75,80 L76,80 L76,82 L77,82 L77,83 L78,83 L78,84 L79,84 L79,86 L80,86 L80,87 L81,87 L81,88 L82,88 L82,90 L83,90 L83,91 L84,91 L84,92 L85,92 L85,93 L86,93 L86,94 L87,94 L87,95 L88,95 L88,96 L89,96 L89,97 L90,97 L90,98 L91,98 L91,99 L92,99 L92,100 L94,100 L94,101 L95,101 L95,102 L97,102 L97,103 L99,103 L99,104 L102,104 L102,105 L103,105 L103,106 L102,106 L102,107 L101,107 L101,109 L100,109 L100,110 L87,110 L87,109 L82,109 L82,108 L79,108 L79,107 L77,107 L77,106 L75,106 L75,105 L74,105 L74,104 L72,104 L72,103 L71,103 L71,102 L70,102 L70,101 L69,101 L69,100 L68,100 L68,99 L67,99 L67,98 L66,98 L66,97 L65,97 L65,96 L64,96 L64,95 L63,95 L63,94 L62,94 L62,92 L61,92 L61,91 L60,91 L60,89 L59,89 L59,88 L58,88 L58,87 L57,87 L57,85 L56,85 L56,84 L55,84 L55,83 L54,83 L54,81 L53,81 L53,80 L52,80 L52,79 L51,79 L51,77 L50,77 L50,76 L49,76 L49,75 L48,75 L48,73 L47,73 L47,72 L46,72 L46,71 L45,71 L45,69 L44,69 L44,68 L43,68 L43,67 L42,67 L42,65 L41,65 L41,64 L40,64 L40,63 L39,63 L39,62 L37,62 L37,63 L36,63 L36,65 L35,65 L35,66 L34,66 L34,67 L33,67 L33,98 L34,98 L34,99 L35,99 L35,100 L36,100 L36,101 L39,101 L39,102 L45,102 L45,108 L31,108 L31,107 L14,107 L14,108 L0,108 L0,102 L7,102 L7,101 L10,101 L10,100 L11,100 L11,99 L12,99 L12,97 L13,97 L13,11 L12,11 L12,9 L11,9 L11,8 L9,8 L9,7 L6,7 L6,6 L0,6 Z " fill="#000000" transform="translate(238,38)"/>
<path d="M0,0 L3,0 L3,1 L5,1 L5,2 L6,2 L6,15 L5,15 L5,79 L6,79 L6,80 L7,80 L7,81 L8,81 L8,82 L11,82 L11,83 L15,83 L15,84 L16,84 L16,88 L15,88 L15,89 L3,89 L3,88 L-12,88 L-12,89 L-25,89 L-25,84 L-24,84 L-24,83 L-20,83 L-20,82 L-18,82 L-18,81 L-16,81 L-16,80 L-15,80 L-15,77 L-14,77 L-14,20 L-15,20 L-15,17 L-16,17 L-16,15 L-18,15 L-18,14 L-25,14 L-25,8 L-21,8 L-21,7 L-17,7 L-17,6 L-13,6 L-13,5 L-10,5 L-10,4 L-8,4 L-8,3 L-5,3 L-5,2 L-3,2 L-3,1 L0,1 Z " fill="#000000" transform="translate(373,57)"/>
<path d="M0,0 L9,0 L9,1 L10,1 L10,4 L9,4 L9,8 L8,8 L8,13 L7,13 L7,17 L6,17 L6,22 L5,22 L5,26 L4,26 L4,30 L3,30 L3,35 L2,35 L2,39 L1,39 L1,43 L0,43 L0,48 L-1,48 L-1,49 L-11,49 L-11,44 L-10,44 L-10,40 L-9,40 L-9,36 L-8,36 L-8,31 L-7,31 L-7,27 L-6,27 L-6,22 L-5,22 L-5,18 L-4,18 L-4,14 L-3,14 L-3,9 L-2,9 L-2,5 L-1,5 L-1,1 L0,1 Z M1,3 L1,7 L0,7 L0,12 L-1,12 L-1,16 L-2,16 L-2,21 L-3,21 L-3,25 L-4,25 L-4,29 L-5,29 L-5,34 L-6,34 L-6,38 L-7,38 L-7,42 L-8,42 L-8,46 L-3,46 L-3,45 L-2,45 L-2,41 L-1,41 L-1,36 L0,36 L0,32 L1,32 L1,27 L2,27 L2,23 L3,23 L3,19 L4,19 L4,14 L5,14 L5,10 L6,10 L6,5 L7,5 L7,3 Z " fill="#000000" transform="translate(105,62)"/>
<path d="M0,0 L39,0 L39,1 L42,1 L42,2 L44,2 L44,3 L45,3 L45,4 L46,4 L46,5 L47,5 L47,7 L48,7 L48,91 L47,91 L47,93 L46,93 L46,95 L45,95 L45,96 L43,96 L43,97 L41,97 L41,98 L-2,98 L-2,97 L-4,97 L-4,96 L-5,96 L-5,95 L-6,95 L-6,94 L-7,94 L-7,92 L-8,92 L-8,89 L-9,89 L-9,10 L-8,10 L-8,6 L-7,6 L-7,5 L-6,5 L-6,3 L-4,3 L-4,2 L-3,2 L-3,1 L0,1 Z M2,19 L2,80 L38,80 L38,19 Z M17,85 L17,86 L16,86 L16,88 L15,88 L15,90 L16,90 L16,92 L17,92 L17,93 L19,93 L19,94 L20,94 L20,93 L23,93 L23,92 L24,92 L24,86 L23,86 L23,85 Z " fill="#000000" transform="translate(157,65)"/>
<path d="M0,0 L2,0 L2,1 L3,1 L3,2 L4,2 L4,3 L5,3 L5,4 L6,4 L6,5 L7,5 L7,8 L6,8 L6,9 L5,9 L5,10 L4,10 L4,11 L3,11 L3,12 L2,12 L2,13 L1,13 L1,14 L0,14 L0,15 L-1,15 L-1,16 L-2,16 L-2,17 L-3,17 L-3,18 L-4,18 L-4,19 L-5,19 L-5,20 L-4,20 L-4,21 L-3,21 L-3,22 L-2,22 L-2,23 L-1,23 L-1,24 L0,24 L0,26 L2,26 L2,27 L3,27 L3,28 L4,28 L4,29 L5,29 L5,30 L6,30 L6,31 L7,31 L7,34 L6,34 L6,35 L5,35 L5,36 L4,36 L4,37 L3,37 L3,38 L2,38 L2,39 L0,39 L0,38 L-1,38 L-1,37 L-2,37 L-2,36 L-3,36 L-3,35 L-5,35 L-5,34 L-6,34 L-6,33 L-7,33 L-7,32 L-8,32 L-8,31 L-9,31 L-9,30 L-10,30 L-10,29 L-11,29 L-11,28 L-12,28 L-12,27 L-13,27 L-13,26 L-14,26 L-14,25 L-15,25 L-15,24 L-16,24 L-16,23 L-17,23 L-17,22 L-18,22 L-18,21 L-19,21 L-19,19 L-18,19 L-18,18 L-17,18 L-17,17 L-16,17 L-16,16 L-15,16 L-15,15 L-14,15 L-14,14 L-13,14 L-13,13 L-12,13 L-12,12 L-11,12 L-11,11 L-10,11 L-10,10 L-9,10 L-9,9 L-8,9 L-8,8 L-7,8 L-7,7 L-6,7 L-6,6 L-5,6 L-5,5 L-4,5 L-4,4 L-3,4 L-3,3 L-2,3 L-2,2 L-1,2 L-1,1 L0,1 Z M0,4 L0,5 L-1,5 L-1,6 L-2,6 L-2,7 L-4,7 L-4,8 L-5,8 L-5,9 L-6,9 L-6,10 L-7,10 L-7,11 L-8,11 L-8,12 L-9,12 L-9,13 L-10,13 L-10,14 L-11,14 L-11,15 L-12,15 L-12,16 L-13,16 L-13,17 L-14,17 L-14,18 L-15,18 L-15,21 L-14,21 L-14,22 L-13,22 L-13,23 L-12,23 L-12,24 L-11,24 L-11,25 L-10,25 L-10,26 L-9,26 L-9,27 L-8,27 L-8,28 L-7,28 L-7,29 L-6,29 L-6,30 L-5,30 L-5,31 L-4,31 L-4,32 L-3,32 L-3,33 L-2,33 L-2,34 L-1,34 L-1,35 L0,35 L0,36 L2,36 L2,35 L3,35 L3,34 L4,34 L4,32 L3,32 L3,31 L2,31 L2,30 L1,30 L1,29 L0,29 L0,28 L-1,28 L-1,27 L-2,27 L-2,26 L-3,26 L-3,25 L-4,25 L-4,24 L-5,24 L-5,23 L-6,23 L-6,22 L-7,22 L-7,21 L-8,21 L-8,18 L-7,18 L-7,17 L-6,17 L-6,16 L-5,16 L-5,15 L-4,15 L-4,14 L-3,14 L-3,13 L-2,13 L-2,12 L-1,12 L-1,11 L0,11 L0,10 L1,10 L1,9 L2,9 L2,8 L3,8 L3,7 L4,7 L4,6 L3,6 L3,5 L2,5 L2,4 Z " fill="#000000" transform="translate(86,67)"/>
<path d="M0,0 L2,0 L2,1 L3,1 L3,2 L4,2 L4,3 L5,3 L5,4 L6,4 L6,5 L7,5 L7,6 L8,6 L8,7 L9,7 L9,8 L10,8 L10,9 L11,9 L11,10 L12,10 L12,11 L13,11 L13,12 L14,12 L14,13 L15,13 L15,14 L16,14 L16,15 L17,15 L17,16 L18,16 L18,17 L19,17 L19,18 L20,18 L20,19 L21,19 L21,21 L20,21 L20,22 L19,22 L19,23 L18,23 L18,24 L17,24 L17,25 L16,25 L16,26 L15,26 L15,27 L14,27 L14,28 L13,28 L13,29 L12,29 L12,30 L11,30 L11,31 L10,31 L10,32 L8,32 L8,33 L7,33 L7,34 L6,34 L6,35 L5,35 L5,36 L4,36 L4,37 L3,37 L3,38 L2,38 L2,39 L0,39 L0,38 L-1,38 L-1,37 L-2,37 L-2,36 L-3,36 L-3,35 L-4,35 L-4,34 L-5,34 L-5,31 L-4,31 L-4,30 L-3,30 L-3,29 L-2,29 L-2,28 L-1,28 L-1,27 L0,27 L0,26 L1,26 L1,25 L2,25 L2,24 L3,24 L3,23 L4,23 L4,22 L5,22 L5,21 L6,21 L6,20 L7,20 L7,19 L6,19 L6,18 L5,18 L5,17 L4,17 L4,16 L3,16 L3,15 L2,15 L2,14 L1,14 L1,13 L0,13 L0,12 L-1,12 L-1,11 L-2,11 L-2,10 L-3,10 L-3,9 L-4,9 L-4,8 L-5,8 L-5,5 L-4,5 L-4,4 L-3,4 L-3,3 L-2,3 L-2,2 L-1,2 L-1,1 L0,1 Z M0,4 L0,5 L-1,5 L-1,6 L-2,6 L-2,7 L-1,7 L-1,8 L0,8 L0,9 L1,9 L1,10 L2,10 L2,11 L3,11 L3,12 L4,12 L4,13 L5,13 L5,14 L6,14 L6,15 L7,15 L7,16 L8,16 L8,17 L9,17 L9,18 L10,18 L10,21 L9,21 L9,22 L8,22 L8,23 L7,23 L7,24 L6,24 L6,25 L5,25 L5,26 L4,26 L4,27 L3,27 L3,28 L2,28 L2,29 L1,29 L1,30 L0,30 L0,31 L-1,31 L-1,32 L-2,32 L-2,34 L-1,34 L-1,35 L0,35 L0,36 L2,36 L2,35 L3,35 L3,34 L4,34 L4,33 L5,33 L5,32 L6,32 L6,31 L7,31 L7,30 L8,30 L8,29 L9,29 L9,28 L10,28 L10,27 L11,27 L11,26 L12,26 L12,25 L13,25 L13,24 L14,24 L14,23 L15,23 L15,22 L16,22 L16,21 L17,21 L17,18 L16,18 L16,17 L15,17 L15,16 L14,16 L14,15 L13,15 L13,14 L12,14 L12,13 L11,13 L11,12 L10,12 L10,11 L9,11 L9,10 L8,10 L8,9 L6,9 L6,8 L5,8 L5,7 L4,7 L4,6 L3,6 L3,5 L2,5 L2,4 Z " fill="#000000" transform="translate(122,67)"/>
<path d="M0,0 L3,0 L3,1 L6,1 L6,2 L7,2 L7,3 L8,3 L8,4 L9,4 L9,6 L10,6 L10,11 L9,11 L9,13 L8,13 L8,14 L7,14 L7,15 L6,15 L6,16 L3,16 L3,17 L0,17 L0,16 L-1,16 L-1,15 L-2,15 L-2,16 L-3,16 L-3,15 L-4,15 L-4,14 L-5,14 L-5,13 L-6,13 L-6,10 L-7,10 L-7,7 L-6,7 L-6,4 L-5,4 L-5,3 L-4,3 L-4,2 L-3,2 L-3,1 L-2,1 L-2,2 L-1,2 L-1,1 L0,1 Z M0,2 L0,4 L-2,4 L-2,3 L-3,3 L-3,4 L-4,4 L-4,5 L-3,5 L-3,7 L-5,7 L-5,10 L-3,10 L-3,12 L-4,12 L-4,13 L-3,13 L-3,14 L-1,14 L-1,13 L0,13 L0,15 L1,15 L1,16 L2,16 L2,15 L3,15 L3,13 L4,13 L4,14 L6,14 L6,13 L7,13 L7,10 L8,10 L8,9 L9,9 L9,8 L8,8 L8,7 L7,7 L7,4 L6,4 L6,3 L5,3 L5,4 L3,4 L3,2 Z " fill="#000000" transform="translate(184,89)"/>
<path d="M0,0 L3,0 L3,1 L2,1 L2,2 L-1,2 L-1,3 L-3,3 L-3,4 L-4,4 L-4,5 L-5,5 L-5,6 L-6,6 L-6,7 L-7,7 L-7,9 L-8,9 L-8,11 L-9,11 L-9,8 L-8,8 L-8,6 L-7,6 L-7,5 L-6,5 L-6,4 L-5,4 L-5,3 L-4,3 L-4,2 L-2,2 L-2,1 L0,1 Z " fill="#000000" transform="translate(173,94)"/>
<path d="M0,0 L1,0 L1,2 L0,2 L0,5 L1,5 L1,6 L4,6 L4,5 L5,5 L5,2 L4,2 L4,1 L3,1 L3,0 L5,0 L5,1 L6,1 L6,3 L7,3 L7,4 L6,4 L6,6 L5,6 L5,7 L3,7 L3,8 L2,8 L2,7 L0,7 L0,6 L-1,6 L-1,1 L0,1 Z " fill="#000000" transform="translate(183,94)"/>
<path d="M0,0 L3,0 L3,4 L2,4 L2,12 L3,12 L3,13 L4,13 L4,14 L5,14 L5,15 L6,15 L6,23 L8,23 L8,15 L9,15 L9,14 L10,14 L10,13 L11,13 L11,11 L12,11 L12,10 L14,10 L14,11 L15,11 L15,13 L14,13 L14,14 L11,14 L11,15 L10,15 L10,23 L11,23 L11,22 L12,22 L12,20 L13,20 L13,18 L14,18 L14,17 L15,17 L15,19 L14,19 L14,21 L13,21 L13,23 L14,23 L14,25 L15,25 L15,26 L14,26 L14,27 L13,27 L13,30 L11,30 L11,31 L10,31 L10,33 L4,33 L4,32 L3,32 L3,30 L1,30 L1,27 L0,27 L0,26 L-1,26 L-1,24 L0,24 L0,23 L1,23 L1,21 L0,21 L0,20 L-1,20 L-1,18 L-2,18 L-2,17 L-3,17 L-3,15 L-4,15 L-4,14 L-5,14 L-5,12 L-6,12 L-6,9 L-7,9 L-7,6 L-5,6 L-5,11 L-4,11 L-4,13 L-3,13 L-3,14 L-2,14 L-2,16 L-1,16 L-1,17 L0,17 L0,19 L1,19 L1,20 L2,20 L2,22 L3,22 L3,23 L4,23 L4,15 L3,15 L3,14 L2,14 L2,13 L1,13 L1,11 L0,11 L0,3 L-1,3 L-1,1 L0,1 Z M1,24 L1,26 L13,26 L13,24 Z M3,28 L3,29 L11,29 L11,28 Z M5,30 L5,31 L6,31 L6,32 L8,32 L8,31 L9,31 L9,30 Z " fill="#000000" transform="translate(170,101)"/>
<path d="M0,0 L3,0 L3,1 L4,1 L4,4 L3,4 L3,10 L1,10 L1,4 L0,4 Z M1,1 L1,3 L2,3 L2,1 Z " fill="#000000" transform="translate(175,105)"/>
<path d="M0,0 L1,0 L1,7 L0,7 L0,9 L-1,9 L-1,10 L-2,10 L-2,11 L-3,11 L-3,9 L-2,9 L-2,7 L-1,7 L-1,5 L0,5 Z " fill="#000000" transform="translate(189,106)"/>
<path d="M0,0 L5,0 L5,1 L3,1 L3,9 L2,9 L2,1 L0,1 Z " fill="#000000" transform="translate(291,166)"/>
<path d="M0,0 L5,0 L5,1 L1,1 L1,4 L5,4 L5,5 L1,5 L1,8 L2,8 L2,9 L5,9 L5,10 L0,10 Z " fill="#000000" transform="translate(306,166)"/>
<path d="M0,0 L5,0 L5,1 L0,1 Z " fill="#000000" transform="translate(323,166)"/>
<path d="M0,0 L1,0 L1,3 L2,3 L2,4 L6,4 L6,3 L7,3 L7,1 L8,1 L8,9 L7,9 L7,6 L6,6 L6,5 L2,5 L2,6 L1,6 L1,9 L0,9 Z " fill="#000000" transform="translate(339,166)"/>
<path d="M0,0 L4,0 L4,1 L5,1 L5,2 L3,2 L3,1 L1,1 L1,2 L0,2 L0,3 L1,3 L1,4 L3,4 L3,5 L0,5 L0,4 L-1,4 L-1,1 L0,1 Z " fill="#000000" transform="translate(380,166)"/>
<path d="M0,0 L5,0 L5,1 L0,1 Z " fill="#000000" transform="translate(397,166)"/>
<path d="M0,0 L1,0 L1,8 L2,8 L2,9 L5,9 L5,10 L1,10 L1,9 L0,9 Z " fill="#000000" transform="translate(414,166)"/>
<path d="M0,0 L1,0 L1,8 L0,8 Z " fill="#000000" transform="translate(428,166)"/>
<path d="M0,0 L1,0 L1,6 L0,6 L0,8 L-1,8 L-1,1 L0,1 Z " fill="#000000" transform="translate(435,166)"/>
<path d="M0,0 L6,0 L6,1 L3,1 L3,9 L2,9 L2,1 L0,1 Z " fill="#000000" transform="translate(445,166)"/>
<path d="M0,0 L1,0 L1,9 L0,9 Z " fill="#000000" transform="translate(460,166)"/>
<path d="M0,0 L6,0 L6,1 L1,1 L1,2 L0,2 L0,3 L-1,3 L-1,1 L0,1 Z " fill="#000000" transform="translate(473,166)"/>
<path d="M0,0 L2,0 L2,2 L3,2 L3,4 L2,4 L2,3 L1,3 L1,9 L0,9 Z " fill="#000000" transform="translate(491,166)"/>
<path d="M0,0 L1,0 L1,9 L-1,9 L-1,7 L-2,7 L-2,6 L-3,6 L-3,4 L-2,4 L-2,5 L-1,5 L-1,6 L0,6 Z " fill="#000000" transform="translate(497,166)"/>
<path d="M0,0 L3,0 L3,1 L0,1 Z " fill="#000000" transform="translate(509,166)"/>
<path d="M0,0 L1,0 L1,1 L0,1 Z " fill="#000000" transform="translate(322,167)"/>
<path d="M0,0 L1,0 L1,1 L0,1 Z " fill="#000000" transform="translate(328,167)"/>
<path d="M0,0 L1,0 L1,1 L0,1 Z " fill="#000000" transform="translate(396,167)"/>
<path d="M0,0 L1,0 L1,1 L0,1 Z " fill="#000000" transform="translate(402,167)"/>
<path d="M0,0 L1,0 L1,1 L2,1 L2,6 L1,6 L1,2 L0,2 Z " fill="#000000" transform="translate(479,167)"/>
<path d="M0,0 L1,0 L1,3 L0,3 Z " fill="#000000" transform="translate(508,167)"/>
<path d="M0,0 L1,0 L1,1 L0,1 Z " fill="#000000" transform="translate(512,167)"/>
<path d="M0,0 L1,0 L1,5 L0,5 Z " fill="#000000" transform="translate(321,168)"/>
<path d="M0,0 L1,0 L1,2 L0,2 Z " fill="#000000" transform="translate(395,168)"/>
<path d="M0,0 L1,0 L1,6 L0,6 L0,7 L-2,7 L-2,8 L-5,8 L-5,7 L-3,7 L-3,6 L-1,6 L-1,5 L0,5 Z " fill="#000000" transform="translate(403,168)"/>
<path d="M0,0 L1,0 L1,3 L0,3 Z " fill="#000000" transform="translate(471,169)"/>
<path d="M0,0 L1,0 L1,1 L2,1 L2,3 L3,3 L3,4 L4,4 L4,5 L2,5 L2,4 L1,4 L1,2 L0,2 Z " fill="#000000" transform="translate(394,170)"/>
<path d="M0,0 L3,0 L3,1 L4,1 L4,5 L3,5 L3,6 L0,6 L0,5 L-1,5 L-1,3 L0,3 L0,4 L1,4 L1,5 L2,5 L2,4 L3,4 L3,2 L2,2 L2,1 L0,1 Z " fill="#000000" transform="translate(509,170)"/>
<path d="M0,0 L1,0 L1,1 L0,1 Z " fill="#000000" transform="translate(383,171)"/>
<path d="M0,0 L1,0 L1,2 L0,2 L0,3 L-1,3 L-1,4 L-3,4 L-3,3 L-2,3 L-2,2 L-1,2 L-1,1 L0,1 Z " fill="#000000" transform="translate(384,172)"/>
<path d="M0,0 L1,0 L1,2 L0,2 Z " fill="#000000" transform="translate(472,172)"/>
<path d="M0,0 L1,0 L1,1 L3,1 L3,2 L5,2 L5,3 L2,3 L2,2 L0,2 Z " fill="#000000" transform="translate(322,173)"/>
<path d="M0,0 L1,0 L1,1 L0,1 Z " fill="#000000" transform="translate(379,173)"/>
<path d="M0,0 L1,0 L1,1 L0,1 Z " fill="#000000" transform="translate(479,173)"/>
<path d="M0,0 L2,0 L2,1 L0,1 Z " fill="#000000" transform="translate(327,174)"/>
<path d="M0,0 L1,0 L1,1 L0,1 Z " fill="#000000" transform="translate(380,174)"/>
<path d="M0,0 L2,0 L2,1 L3,1 L3,0 L5,0 L5,1 L4,1 L4,2 L1,2 L1,1 L0,1 Z " fill="#000000" transform="translate(429,174)"/>
<path d="M0,0 L2,0 L2,1 L0,1 Z " fill="#000000" transform="translate(473,174)"/>
<path d="M0,0 L2,0 L2,1 L1,1 L1,2 L-2,2 L-2,1 L0,1 Z " fill="#000000" transform="translate(477,174)"/>
</svg>
