<?xml version="1.0" encoding="UTF-8"?>
<svg version="1.1" xmlns="http://www.w3.org/2000/svg" width="237" height="203">
<path d="M0,0 L123,0 L123,1 L125,1 L125,2 L127,2 L127,3 L128,3 L128,4 L129,4 L129,6 L130,6 L130,21 L129,21 L129,22 L128,22 L128,21 L119,21 L119,22 L118,22 L118,21 L117,21 L117,22 L115,22 L115,16 L8,16 L8,85 L9,85 L9,86 L99,86 L99,107 L77,107 L77,110 L78,110 L78,112 L79,112 L79,114 L80,114 L80,115 L81,115 L81,116 L82,116 L82,117 L84,117 L84,118 L86,118 L86,119 L90,119 L90,120 L93,120 L93,121 L94,121 L94,123 L95,123 L95,124 L94,124 L94,126 L93,126 L93,127 L30,127 L30,126 L29,126 L29,124 L28,124 L28,123 L29,123 L29,121 L30,121 L30,120 L32,120 L32,119 L37,119 L37,118 L39,118 L39,117 L41,117 L41,116 L42,116 L42,115 L43,115 L43,114 L44,114 L44,112 L45,112 L45,110 L46,110 L46,107 L-1,107 L-1,106 L-3,106 L-3,105 L-5,105 L-5,103 L-6,103 L-6,102 L-7,102 L-7,6 L-6,6 L-6,4 L-5,4 L-5,3 L-4,3 L-4,2 L-2,2 L-2,1 L0,1 Z M60,92 L60,93 L58,93 L58,94 L57,94 L57,100 L58,100 L58,101 L59,101 L59,102 L63,102 L63,101 L65,101 L65,100 L66,100 L66,95 L65,95 L65,93 L63,93 L63,92 Z " fill="#000000" transform="translate(42,36)"/>
<path d="M0,0 L9,0 L9,1 L10,1 L10,4 L9,4 L9,8 L8,8 L8,13 L7,13 L7,17 L6,17 L6,22 L5,22 L5,26 L4,26 L4,30 L3,30 L3,35 L2,35 L2,39 L1,39 L1,43 L0,43 L0,48 L-1,48 L-1,49 L-11,49 L-11,44 L-10,44 L-10,40 L-9,40 L-9,36 L-8,36 L-8,31 L-7,31 L-7,27 L-6,27 L-6,22 L-5,22 L-5,18 L-4,18 L-4,14 L-3,14 L-3,9 L-2,9 L-2,5 L-1,5 L-1,1 L0,1 Z M1,3 L1,7 L0,7 L0,12 L-1,12 L-1,16 L-2,16 L-2,21 L-3,21 L-3,25 L-4,25 L-4,29 L-5,29 L-5,34 L-6,34 L-6,38 L-7,38 L-7,42 L-8,42 L-8,46 L-3,46 L-3,45 L-2,45 L-2,41 L-1,41 L-1,36 L0,36 L0,32 L1,32 L1,27 L2,27 L2,23 L3,23 L3,19 L4,19 L4,14 L5,14 L5,10 L6,10 L6,5 L7,5 L7,3 Z " fill="#000000" transform="translate(105,62)"/>
<path d="M0,0 L39,0 L39,1 L42,1 L42,2 L44,2 L44,3 L45,3 L45,4 L46,4 L46,5 L47,5 L47,7 L48,7 L48,91 L47,91 L47,93 L46,93 L46,95 L45,95 L45,96 L43,96 L43,97 L41,97 L41,98 L-2,98 L-2,97 L-4,97 L-4,96 L-5,96 L-5,95 L-6,95 L-6,94 L-7,94 L-7,92 L-8,92 L-8,89 L-9,89 L-9,10 L-8,10 L-8,6 L-7,6 L-7,5 L-6,5 L-6,3 L-4,3 L-4,2 L-3,2 L-3,1 L0,1 Z M2,19 L2,80 L38,80 L38,19 Z M17,85 L17,86 L16,86 L16,88 L15,88 L15,90 L16,90 L16,92 L17,92 L17,93 L19,93 L19,94 L20,94 L20,93 L23,93 L23,92 L24,92 L24,86 L23,86 L23,85 Z " fill="#000000" transform="translate(157,65)"/>
<path d="M0,0 L2,0 L2,1 L3,1 L3,2 L4,2 L4,3 L5,3 L5,4 L6,4 L6,5 L7,5 L7,8 L6,8 L6,9 L5,9 L5,10 L4,10 L4,11 L3,11 L3,12 L2,12 L2,13 L1,13 L1,14 L0,14 L0,15 L-1,15 L-1,16 L-2,16 L-2,17 L-3,17 L-3,18 L-4,18 L-4,19 L-5,19 L-5,20 L-4,20 L-4,21 L-3,21 L-3,22 L-2,22 L-2,23 L-1,23 L-1,24 L0,24 L0,26 L2,26 L2,27 L3,27 L3,28 L4,28 L4,29 L5,29 L5,30 L6,30 L6,31 L7,31 L7,34 L6,34 L6,35 L5,35 L5,36 L4,36 L4,37 L3,37 L3,38 L2,38 L2,39 L0,39 L0,38 L-1,38 L-1,37 L-2,37 L-2,36 L-3,36 L-3,35 L-5,35 L-5,34 L-6,34 L-6,33 L-7,33 L-7,32 L-8,32 L-8,31 L-9,31 L-9,30 L-10,30 L-10,29 L-11,29 L-11,28 L-12,28 L-12,27 L-13,27 L-13,26 L-14,26 L-14,25 L-15,25 L-15,24 L-16,24 L-16,23 L-17,23 L-17,22 L-18,22 L-18,21 L-19,21 L-19,19 L-18,19 L-18,18 L-17,18 L-17,17 L-16,17 L-16,16 L-15,16 L-15,15 L-14,15 L-14,14 L-13,14 L-13,13 L-12,13 L-12,12 L-11,12 L-11,11 L-10,11 L-10,10 L-9,10 L-9,9 L-8,9 L-8,8 L-7,8 L-7,7 L-6,7 L-6,6 L-5,6 L-5,5 L-4,5 L-4,4 L-3,4 L-3,3 L-2,3 L-2,2 L-1,2 L-1,1 L0,1 Z M0,4 L0,5 L-1,5 L-1,6 L-2,6 L-2,7 L-4,7 L-4,8 L-5,8 L-5,9 L-6,9 L-6,10 L-7,10 L-7,11 L-8,11 L-8,12 L-9,12 L-9,13 L-10,13 L-10,14 L-11,14 L-11,15 L-12,15 L-12,16 L-13,16 L-13,17 L-14,17 L-14,18 L-15,18 L-15,21 L-14,21 L-14,22 L-13,22 L-13,23 L-12,23 L-12,24 L-11,24 L-11,25 L-10,25 L-10,26 L-9,26 L-9,27 L-8,27 L-8,28 L-7,28 L-7,29 L-6,29 L-6,30 L-5,30 L-5,31 L-4,31 L-4,32 L-3,32 L-3,33 L-2,33 L-2,34 L-1,34 L-1,35 L0,35 L0,36 L2,36 L2,35 L3,35 L3,34 L4,34 L4,32 L3,32 L3,31 L2,31 L2,30 L1,30 L1,29 L0,29 L0,28 L-1,28 L-1,27 L-2,27 L-2,26 L-3,26 L-3,25 L-4,25 L-4,24 L-5,24 L-5,23 L-6,23 L-6,22 L-7,22 L-7,21 L-8,21 L-8,18 L-7,18 L-7,17 L-6,17 L-6,16 L-5,16 L-5,15 L-4,15 L-4,14 L-3,14 L-3,13 L-2,13 L-2,12 L-1,12 L-1,11 L0,11 L0,10 L1,10 L1,9 L2,9 L2,8 L3,8 L3,7 L4,7 L4,6 L3,6 L3,5 L2,5 L2,4 Z " fill="#000000" transform="translate(86,67)"/>
<path d="M0,0 L2,0 L2,1 L3,1 L3,2 L4,2 L4,3 L5,3 L5,4 L6,4 L6,5 L7,5 L7,6 L8,6 L8,7 L9,7 L9,8 L10,8 L10,9 L11,9 L11,10 L12,10 L12,11 L13,11 L13,12 L14,12 L14,13 L15,13 L15,14 L16,14 L16,15 L17,15 L17,16 L18,16 L18,17 L19,17 L19,18 L20,18 L20,19 L21,19 L21,21 L20,21 L20,22 L19,22 L19,23 L18,23 L18,24 L17,24 L17,25 L16,25 L16,26 L15,26 L15,27 L14,27 L14,28 L13,28 L13,29 L12,29 L12,30 L11,30 L11,31 L10,31 L10,32 L8,32 L8,33 L7,33 L7,34 L6,34 L6,35 L5,35 L5,36 L4,36 L4,37 L3,37 L3,38 L2,38 L2,39 L0,39 L0,38 L-1,38 L-1,37 L-2,37 L-2,36 L-3,36 L-3,35 L-4,35 L-4,34 L-5,34 L-5,31 L-4,31 L-4,30 L-3,30 L-3,29 L-2,29 L-2,28 L-1,28 L-1,27 L0,27 L0,26 L1,26 L1,25 L2,25 L2,24 L3,24 L3,23 L4,23 L4,22 L5,22 L5,21 L6,21 L6,20 L7,20 L7,19 L6,19 L6,18 L5,18 L5,17 L4,17 L4,16 L3,16 L3,15 L2,15 L2,14 L1,14 L1,13 L0,13 L0,12 L-1,12 L-1,11 L-2,11 L-2,10 L-3,10 L-3,9 L-4,9 L-4,8 L-5,8 L-5,5 L-4,5 L-4,4 L-3,4 L-3,3 L-2,3 L-2,2 L-1,2 L-1,1 L0,1 Z M0,4 L0,5 L-1,5 L-1,6 L-2,6 L-2,7 L-1,7 L-1,8 L0,8 L0,9 L1,9 L1,10 L2,10 L2,11 L3,11 L3,12 L4,12 L4,13 L5,13 L5,14 L6,14 L6,15 L7,15 L7,16 L8,16 L8,17 L9,17 L9,18 L10,18 L10,21 L9,21 L9,22 L8,22 L8,23 L7,23 L7,24 L6,24 L6,25 L5,25 L5,26 L4,26 L4,27 L3,27 L3,28 L2,28 L2,29 L1,29 L1,30 L0,30 L0,31 L-1,31 L-1,32 L-2,32 L-2,34 L-1,34 L-1,35 L0,35 L0,36 L2,36 L2,35 L3,35 L3,34 L4,34 L4,33 L5,33 L5,32 L6,32 L6,31 L7,31 L7,30 L8,30 L8,29 L9,29 L9,28 L10,28 L10,27 L11,27 L11,26 L12,26 L12,25 L13,25 L13,24 L14,24 L14,23 L15,23 L15,22 L16,22 L16,21 L17,21 L17,18 L16,18 L16,17 L15,17 L15,16 L14,16 L14,15 L13,15 L13,14 L12,14 L12,13 L11,13 L11,12 L10,12 L10,11 L9,11 L9,10 L8,10 L8,9 L6,9 L6,8 L5,8 L5,7 L4,7 L4,6 L3,6 L3,5 L2,5 L2,4 Z " fill="#000000" transform="translate(122,67)"/>
<path d="M0,0 L3,0 L3,1 L6,1 L6,2 L7,2 L7,3 L8,3 L8,4 L9,4 L9,6 L10,6 L10,11 L9,11 L9,13 L8,13 L8,14 L7,14 L7,15 L6,15 L6,16 L3,16 L3,17 L0,17 L0,16 L-1,16 L-1,15 L-2,15 L-2,16 L-3,16 L-3,15 L-4,15 L-4,14 L-5,14 L-5,13 L-6,13 L-6,10 L-7,10 L-7,7 L-6,7 L-6,4 L-5,4 L-5,3 L-4,3 L-4,2 L-3,2 L-3,1 L-2,1 L-2,2 L-1,2 L-1,1 L0,1 Z M0,2 L0,4 L-2,4 L-2,3 L-3,3 L-3,4 L-4,4 L-4,5 L-3,5 L-3,7 L-5,7 L-5,10 L-3,10 L-3,12 L-4,12 L-4,13 L-3,13 L-3,14 L-1,14 L-1,13 L0,13 L0,15 L1,15 L1,16 L2,16 L2,15 L3,15 L3,13 L4,13 L4,14 L6,14 L6,13 L7,13 L7,10 L8,10 L8,9 L9,9 L9,8 L8,8 L8,7 L7,7 L7,4 L6,4 L6,3 L5,3 L5,4 L3,4 L3,2 Z " fill="#000000" transform="translate(184,89)"/>
<path d="M0,0 L3,0 L3,1 L2,1 L2,2 L-1,2 L-1,3 L-3,3 L-3,4 L-4,4 L-4,5 L-5,5 L-5,6 L-6,6 L-6,7 L-7,7 L-7,9 L-8,9 L-8,11 L-9,11 L-9,8 L-8,8 L-8,6 L-7,6 L-7,5 L-6,5 L-6,4 L-5,4 L-5,3 L-4,3 L-4,2 L-2,2 L-2,1 L0,1 Z " fill="#000000" transform="translate(173,94)"/>
<path d="M0,0 L1,0 L1,2 L0,2 L0,5 L1,5 L1,6 L4,6 L4,5 L5,5 L5,2 L4,2 L4,1 L3,1 L3,0 L5,0 L5,1 L6,1 L6,3 L7,3 L7,4 L6,4 L6,6 L5,6 L5,7 L3,7 L3,8 L2,8 L2,7 L0,7 L0,6 L-1,6 L-1,1 L0,1 Z " fill="#000000" transform="translate(183,94)"/>
<path d="M0,0 L3,0 L3,4 L2,4 L2,12 L3,12 L3,13 L4,13 L4,14 L5,14 L5,15 L6,15 L6,23 L8,23 L8,15 L9,15 L9,14 L10,14 L10,13 L11,13 L11,11 L12,11 L12,10 L14,10 L14,11 L15,11 L15,13 L14,13 L14,14 L11,14 L11,15 L10,15 L10,23 L11,23 L11,22 L12,22 L12,20 L13,20 L13,18 L14,18 L14,17 L15,17 L15,19 L14,19 L14,21 L13,21 L13,23 L14,23 L14,25 L15,25 L15,26 L14,26 L14,27 L13,27 L13,30 L11,30 L11,31 L10,31 L10,33 L4,33 L4,32 L3,32 L3,30 L1,30 L1,27 L0,27 L0,26 L-1,26 L-1,24 L0,24 L0,23 L1,23 L1,21 L0,21 L0,20 L-1,20 L-1,18 L-2,18 L-2,17 L-3,17 L-3,15 L-4,15 L-4,14 L-5,14 L-5,12 L-6,12 L-6,9 L-7,9 L-7,6 L-5,6 L-5,11 L-4,11 L-4,13 L-3,13 L-3,14 L-2,14 L-2,16 L-1,16 L-1,17 L0,17 L0,19 L1,19 L1,20 L2,20 L2,22 L3,22 L3,23 L4,23 L4,15 L3,15 L3,14 L2,14 L2,13 L1,13 L1,11 L0,11 L0,3 L-1,3 L-1,1 L0,1 Z M1,24 L1,26 L13,26 L13,24 Z M3,28 L3,29 L11,29 L11,28 Z M5,30 L5,31 L6,31 L6,32 L8,32 L8,31 L9,31 L9,30 Z " fill="#000000" transform="translate(170,101)"/>
<path d="M0,0 L3,0 L3,1 L4,1 L4,4 L3,4 L3,10 L1,10 L1,4 L0,4 Z M1,1 L1,3 L2,3 L2,1 Z " fill="#000000" transform="translate(175,105)"/>
<path d="M0,0 L1,0 L1,7 L0,7 L0,9 L-1,9 L-1,10 L-2,10 L-2,11 L-3,11 L-3,9 L-2,9 L-2,7 L-1,7 L-1,5 L0,5 Z " fill="#000000" transform="translate(189,106)"/>
</svg>
